<svg xmlns="http://www.w3.org/2000/svg" xmlns:xlink="http://www.w3.org/1999/xlink" width="2000" zoomAndPan="magnify" viewBox="0 0 1500 1499.999933" height="2000" preserveAspectRatio="xMidYMid meet" version="1.0"><defs><clipPath id="39efebf1b3"><path d="M 365 1117 L 498 1117 L 498 1249.5 L 365 1249.5 Z M 365 1117 " clip-rule="nonzero"/></clipPath><clipPath id="9f947c5f49"><path d="M 989 1117 L 1122 1117 L 1122 1249.5 L 989 1249.5 Z M 989 1117 " clip-rule="nonzero"/></clipPath></defs><path fill="#000000" d="M 1218.949219 929.292969 L 267.550781 929.292969 C 261.214844 929.292969 256.03125 924.113281 256.03125 917.777344 C 256.03125 911.441406 261.214844 906.257812 267.550781 906.257812 L 1218.949219 906.257812 C 1225.285156 906.257812 1230.46875 911.441406 1230.46875 917.777344 C 1230.46875 924.113281 1225.285156 929.292969 1218.949219 929.292969 Z M 1218.949219 929.292969 " fill-opacity="1" fill-rule="evenodd"/><path fill="#000000" d="M 431.109375 1140.652344 C 424.773438 1140.652344 419.589844 1135.46875 419.589844 1129.136719 L 419.589844 917.777344 C 419.589844 911.441406 424.773438 906.257812 431.109375 906.257812 C 437.441406 906.257812 442.625 911.441406 442.625 917.777344 L 442.625 1129.136719 C 442.625 1135.46875 437.441406 1140.652344 431.109375 1140.652344 Z M 431.109375 1140.652344 " fill-opacity="1" fill-rule="evenodd"/><g clip-path="url(#39efebf1b3)"><path fill="#000000" d="M 431.109375 1249.5 C 394.824219 1249.5 365.453125 1220.128906 365.453125 1183.847656 C 365.453125 1147.5625 394.824219 1117.617188 431.109375 1117.617188 C 467.964844 1117.617188 497.335938 1147.5625 497.335938 1183.847656 C 497.335938 1220.128906 467.964844 1249.5 431.109375 1249.5 Z M 431.109375 1140.652344 C 407.496094 1140.652344 388.492188 1160.234375 388.492188 1183.847656 C 388.492188 1207.457031 407.496094 1226.464844 431.109375 1226.464844 C 454.71875 1226.464844 474.300781 1207.457031 474.300781 1183.847656 C 474.300781 1160.234375 454.71875 1140.652344 431.109375 1140.652344 Z M 431.109375 1140.652344 " fill-opacity="1" fill-rule="evenodd"/></g><path fill="#000000" d="M 322.261719 929.292969 C 315.925781 929.292969 310.742188 924.113281 310.742188 917.777344 L 310.742188 712.753906 C 310.742188 706.417969 315.925781 701.234375 322.261719 701.234375 C 328.597656 701.234375 333.777344 706.417969 333.777344 712.753906 L 333.777344 917.777344 C 333.777344 924.113281 328.597656 929.292969 322.261719 929.292969 Z M 322.261719 929.292969 " fill-opacity="1" fill-rule="evenodd"/><path fill="#000000" d="M 322.261719 724.269531 C 285.980469 724.269531 256.03125 694.324219 256.03125 658.042969 C 256.03125 621.757812 285.980469 591.8125 322.261719 591.8125 C 358.542969 591.8125 387.914062 621.757812 387.914062 658.042969 C 387.914062 694.324219 358.542969 724.269531 322.261719 724.269531 Z M 322.261719 614.847656 C 298.648438 614.847656 279.066406 634.429688 279.066406 658.042969 C 279.066406 681.652344 298.648438 701.234375 322.261719 701.234375 C 345.875 701.234375 364.878906 681.652344 364.878906 658.042969 C 364.878906 634.429688 345.875 614.847656 322.261719 614.847656 Z M 322.261719 614.847656 " fill-opacity="1" fill-rule="evenodd"/><path fill="#000000" d="M 540.53125 929.292969 C 534.195312 929.292969 529.011719 924.113281 529.011719 917.777344 L 529.011719 712.753906 C 529.011719 706.417969 534.195312 701.234375 540.53125 701.234375 C 546.863281 701.234375 552.046875 706.417969 552.046875 712.753906 L 552.046875 917.777344 C 552.046875 924.113281 546.863281 929.292969 540.53125 929.292969 Z M 540.53125 929.292969 " fill-opacity="1" fill-rule="evenodd"/><path fill="#000000" d="M 540.53125 724.269531 C 504.246094 724.269531 474.300781 694.324219 474.300781 658.042969 C 474.300781 621.757812 504.246094 591.8125 540.53125 591.8125 C 576.8125 591.8125 606.183594 621.757812 606.183594 658.042969 C 606.183594 694.324219 576.8125 724.269531 540.53125 724.269531 Z M 540.53125 614.847656 C 516.917969 614.847656 497.335938 634.429688 497.335938 658.042969 C 497.335938 681.652344 516.917969 701.234375 540.53125 701.234375 C 564.140625 701.234375 583.148438 681.652344 583.148438 658.042969 C 583.148438 634.429688 564.140625 614.847656 540.53125 614.847656 Z M 540.53125 614.847656 " fill-opacity="1" fill-rule="evenodd"/><path fill="#000000" d="M 1055.390625 1140.652344 C 1049.058594 1140.652344 1043.875 1135.46875 1043.875 1129.136719 L 1043.875 917.777344 C 1043.875 911.441406 1049.058594 906.257812 1055.390625 906.257812 C 1061.726562 906.257812 1066.910156 911.441406 1066.910156 917.777344 L 1066.910156 1129.136719 C 1066.910156 1135.46875 1061.726562 1140.652344 1055.390625 1140.652344 Z M 1055.390625 1140.652344 " fill-opacity="1" fill-rule="evenodd"/><g clip-path="url(#9f947c5f49)"><path fill="#000000" d="M 1055.390625 1249.5 C 1019.109375 1249.5 989.738281 1220.128906 989.738281 1183.847656 C 989.738281 1147.5625 1019.109375 1117.617188 1055.390625 1117.617188 C 1091.675781 1117.617188 1121.621094 1147.5625 1121.621094 1183.847656 C 1121.621094 1220.128906 1091.675781 1249.5 1055.390625 1249.5 Z M 1055.390625 1140.652344 C 1031.78125 1140.652344 1012.773438 1160.234375 1012.773438 1183.847656 C 1012.773438 1207.457031 1031.78125 1226.464844 1055.390625 1226.464844 C 1079.003906 1226.464844 1098.585938 1207.457031 1098.585938 1183.847656 C 1098.585938 1160.234375 1079.003906 1140.652344 1055.390625 1140.652344 Z M 1055.390625 1140.652344 " fill-opacity="1" fill-rule="evenodd"/></g><path fill="#000000" d="M 946.546875 929.292969 C 940.210938 929.292969 935.027344 924.113281 935.027344 917.777344 L 935.027344 712.753906 C 935.027344 706.417969 940.210938 701.234375 946.546875 701.234375 C 952.878906 701.234375 958.0625 706.417969 958.0625 712.753906 L 958.0625 917.777344 C 958.0625 924.113281 952.878906 929.292969 946.546875 929.292969 Z M 946.546875 929.292969 " fill-opacity="1" fill-rule="evenodd"/><path fill="#000000" d="M 946.546875 724.269531 C 910.261719 724.269531 880.316406 694.324219 880.316406 658.042969 C 880.316406 621.757812 910.261719 591.8125 946.546875 591.8125 C 982.828125 591.8125 1012.199219 621.757812 1012.199219 658.042969 C 1012.199219 694.324219 982.828125 724.269531 946.546875 724.269531 Z M 946.546875 614.847656 C 922.933594 614.847656 903.351562 634.429688 903.351562 658.042969 C 903.351562 681.652344 922.933594 701.234375 946.546875 701.234375 C 970.15625 701.234375 989.164062 681.652344 989.164062 658.042969 C 989.164062 634.429688 970.15625 614.847656 946.546875 614.847656 Z M 946.546875 614.847656 " fill-opacity="1" fill-rule="evenodd"/><path fill="#000000" d="M 1164.816406 929.292969 C 1158.480469 929.292969 1153.296875 924.113281 1153.296875 917.777344 L 1153.296875 712.753906 C 1153.296875 706.417969 1158.480469 701.234375 1164.816406 701.234375 C 1171.148438 701.234375 1176.332031 706.417969 1176.332031 712.753906 L 1176.332031 917.777344 C 1176.332031 924.113281 1171.148438 929.292969 1164.816406 929.292969 Z M 1164.816406 929.292969 " fill-opacity="1" fill-rule="evenodd"/><path fill="#000000" d="M 1164.816406 724.269531 C 1128.53125 724.269531 1098.585938 694.324219 1098.585938 658.042969 C 1098.585938 621.757812 1128.53125 591.8125 1164.816406 591.8125 C 1201.097656 591.8125 1230.46875 621.757812 1230.46875 658.042969 C 1230.46875 694.324219 1201.097656 724.269531 1164.816406 724.269531 Z M 1164.816406 614.847656 C 1141.203125 614.847656 1121.621094 634.429688 1121.621094 658.042969 C 1121.621094 681.652344 1141.203125 701.234375 1164.816406 701.234375 C 1188.425781 701.234375 1207.433594 681.652344 1207.433594 658.042969 C 1207.433594 634.429688 1188.425781 614.847656 1164.816406 614.847656 Z M 1164.816406 614.847656 " fill-opacity="1" fill-rule="evenodd"/><path fill="#000000" d="M 743.25 589.507812 C 654.558594 589.507812 581.996094 517.519531 581.996094 428.253906 C 581.996094 339.5625 654.558594 267 743.25 267 C 832.515625 267 904.503906 339.5625 904.503906 428.253906 C 904.503906 517.519531 832.515625 589.507812 743.25 589.507812 Z M 743.25 290.035156 C 667.230469 290.035156 605.03125 352.234375 605.03125 428.253906 C 605.03125 504.851562 667.230469 566.472656 743.25 566.472656 C 819.847656 566.472656 881.46875 504.851562 881.46875 428.253906 C 881.46875 352.234375 819.847656 290.035156 743.25 290.035156 Z M 743.25 290.035156 " fill-opacity="1" fill-rule="evenodd"/><path fill="#000000" d="M 743.25 929.292969 C 736.914062 929.292969 731.730469 924.113281 731.730469 917.777344 L 731.730469 577.992188 C 731.730469 571.65625 736.914062 566.472656 743.25 566.472656 C 749.585938 566.472656 754.769531 571.65625 754.769531 577.992188 L 754.769531 917.777344 C 754.769531 924.113281 749.585938 929.292969 743.25 929.292969 Z M 743.25 929.292969 " fill-opacity="1" fill-rule="evenodd"/><path fill="#000000" d="M 743.25 324.589844 C 736.914062 324.589844 731.730469 319.40625 731.730469 313.074219 L 731.730469 308.464844 C 731.730469 302.128906 736.914062 296.945312 743.25 296.945312 C 749.585938 296.945312 754.769531 302.128906 754.769531 308.464844 L 754.769531 313.074219 C 754.769531 319.40625 749.585938 324.589844 743.25 324.589844 Z M 743.25 324.589844 " fill-opacity="1" fill-rule="evenodd"/><path fill="#000000" d="M 801.417969 340.140625 C 799.113281 340.140625 797.386719 339.5625 795.65625 338.414062 C 789.898438 335.53125 788.171875 328.046875 791.050781 322.863281 L 793.355469 318.832031 C 796.808594 313.648438 803.71875 311.34375 808.902344 314.800781 C 814.664062 317.679688 816.390625 325.167969 813.511719 330.351562 L 811.207031 334.382812 C 808.902344 337.835938 804.871094 340.140625 801.417969 340.140625 Z M 801.417969 340.140625 " fill-opacity="1" fill-rule="evenodd"/><path fill="#000000" d="M 843.457031 382.183594 C 839.425781 382.183594 835.394531 380.453125 833.667969 376.421875 C 830.210938 371.238281 831.941406 363.753906 837.699219 360.871094 L 841.730469 358.570312 C 846.914062 355.691406 853.824219 357.417969 857.28125 362.601562 C 860.160156 368.359375 858.433594 375.269531 853.25 378.726562 L 849.21875 380.453125 C 847.488281 381.605469 845.1875 382.183594 843.457031 382.183594 Z M 843.457031 382.183594 " fill-opacity="1" fill-rule="evenodd"/><path fill="#000000" d="M 863.039062 439.773438 L 859.007812 439.773438 C 852.671875 439.773438 847.488281 434.589844 847.488281 428.253906 C 847.488281 421.917969 852.671875 416.734375 859.007812 416.734375 L 863.039062 416.734375 C 869.949219 416.734375 874.558594 421.917969 874.558594 428.253906 C 874.558594 434.589844 869.949219 439.773438 863.039062 439.773438 Z M 863.039062 439.773438 " fill-opacity="1" fill-rule="evenodd"/><path fill="#000000" d="M 847.488281 499.667969 C 845.1875 499.667969 843.457031 499.667969 841.730469 498.515625 L 837.699219 496.210938 C 831.941406 492.757812 830.210938 485.84375 833.667969 480.660156 C 836.546875 474.902344 843.457031 473.175781 849.21875 476.054688 L 853.25 478.359375 C 858.433594 481.8125 860.160156 488.726562 857.28125 493.90625 C 854.976562 497.9375 850.945312 499.667969 847.488281 499.667969 Z M 847.488281 499.667969 " fill-opacity="1" fill-rule="evenodd"/><path fill="#000000" d="M 803.144531 544.011719 C 799.113281 544.011719 795.65625 541.707031 793.355469 538.253906 L 791.050781 534.222656 C 788.171875 528.460938 789.898438 521.550781 795.65625 518.671875 C 800.839844 515.214844 807.75 516.945312 811.207031 522.703125 L 813.511719 526.734375 C 816.390625 531.917969 814.664062 538.828125 808.902344 542.285156 C 807.175781 543.4375 805.449219 544.011719 803.144531 544.011719 Z M 803.144531 544.011719 " fill-opacity="1" fill-rule="evenodd"/><path fill="#000000" d="M 743.25 560.136719 C 736.914062 560.136719 731.730469 554.953125 731.730469 548.621094 L 731.730469 544.011719 C 731.730469 537.675781 736.914062 532.492188 743.25 532.492188 C 749.585938 532.492188 754.769531 537.675781 754.769531 544.011719 L 754.769531 548.621094 C 754.769531 554.953125 749.585938 560.136719 743.25 560.136719 Z M 743.25 560.136719 " fill-opacity="1" fill-rule="evenodd"/><path fill="#000000" d="M 683.355469 544.011719 C 681.628906 544.011719 679.324219 543.4375 677.597656 542.285156 C 672.414062 538.828125 670.109375 531.917969 673.566406 526.734375 L 675.867188 522.703125 C 678.75 516.945312 686.234375 515.214844 691.417969 518.671875 C 697.175781 521.550781 698.90625 528.460938 695.449219 534.222656 L 693.722656 538.253906 C 691.417969 541.707031 687.386719 544.011719 683.355469 544.011719 Z M 683.355469 544.011719 " fill-opacity="1" fill-rule="evenodd"/><path fill="#000000" d="M 639.585938 499.667969 C 635.554688 499.667969 631.523438 497.9375 629.796875 493.90625 C 626.339844 488.726562 628.644531 481.8125 633.828125 478.359375 L 637.859375 476.054688 C 643.042969 473.175781 650.527344 474.902344 653.410156 480.660156 C 656.863281 485.84375 654.558594 492.757812 649.375 496.210938 L 645.34375 498.515625 C 643.617188 499.667969 641.3125 499.667969 639.585938 499.667969 Z M 639.585938 499.667969 " fill-opacity="1" fill-rule="evenodd"/><path fill="#000000" d="M 628.066406 439.773438 L 623.460938 439.773438 C 617.125 439.773438 611.941406 434.589844 611.941406 428.253906 C 611.941406 421.917969 617.125 416.734375 623.460938 416.734375 L 628.066406 416.734375 C 634.402344 416.734375 639.585938 421.917969 639.585938 428.253906 C 639.585938 434.589844 634.402344 439.773438 628.066406 439.773438 Z M 628.066406 439.773438 " fill-opacity="1" fill-rule="evenodd"/><path fill="#000000" d="M 643.617188 382.183594 C 641.3125 382.183594 639.585938 381.605469 637.859375 380.453125 L 633.828125 378.726562 C 628.644531 375.269531 626.339844 368.359375 629.796875 362.601562 C 632.675781 357.417969 639.585938 355.113281 645.34375 358.570312 L 649.375 360.871094 C 654.558594 363.753906 656.863281 371.238281 653.410156 376.421875 C 651.105469 380.453125 647.648438 382.183594 643.617188 382.183594 Z M 643.617188 382.183594 " fill-opacity="1" fill-rule="evenodd"/><path fill="#000000" d="M 685.660156 340.140625 C 681.628906 340.140625 677.597656 337.835938 675.867188 334.382812 L 673.566406 330.351562 C 670.109375 325.167969 672.414062 317.679688 677.597656 314.800781 C 683.355469 311.34375 690.265625 313.648438 693.722656 318.832031 L 695.449219 322.863281 C 698.90625 328.046875 697.175781 335.53125 691.417969 338.414062 C 689.691406 339.5625 687.386719 340.140625 685.660156 340.140625 Z M 685.660156 340.140625 " fill-opacity="1" fill-rule="evenodd"/><path fill="#000000" d="M 727.125 472.023438 C 725.398438 472.023438 723.667969 471.449219 721.941406 470.871094 C 716.183594 467.992188 713.878906 461.082031 716.757812 455.320312 L 729.429688 430.558594 L 692.570312 390.820312 C 687.960938 386.214844 688.539062 378.726562 693.144531 374.117188 C 697.753906 370.085938 704.664062 370.085938 709.269531 374.695312 L 751.886719 420.765625 C 755.34375 424.222656 755.921875 429.40625 753.617188 433.4375 L 737.492188 465.6875 C 735.1875 469.71875 731.15625 472.023438 727.125 472.023438 Z M 727.125 472.023438 " fill-opacity="1" fill-rule="evenodd"/></svg>